<svg width="54" height="42" viewBox="0 0 54 42" fill="none" xmlns="http://www.w3.org/2000/svg">
<path d="M17.4945 1.91797C12.1907 1.91797 7.86911 6.25451 7.86911 11.5766C7.86911 14.3034 9.0259 16.7564 10.8593 18.5195C6.04662 20.5892 2.2925 24.7067 0.786491 29.9303C0.67736 30.2478 0.710099 30.5873 0.862882 30.872C1.01567 31.1677 1.27758 31.3758 1.59406 31.4634C1.91054 31.551 2.24885 31.5072 2.53259 31.3429C2.81633 31.1787 3.02368 30.8939 3.10007 30.5764C4.58426 25.4185 8.54572 21.3995 13.5112 19.9759C13.9805 19.8445 14.3188 19.4503 14.3842 18.9685C14.4497 18.4866 14.2096 18.0157 13.7949 17.7748C11.6887 16.5045 10.2809 14.2158 10.2809 11.5766C10.2809 7.56861 13.5003 4.33811 17.4945 4.33811C19.3606 4.33811 21.0413 5.03896 22.329 6.1888L23.6713 4.16289C21.9907 2.77214 19.8299 1.91797 17.4945 1.91797ZM1.14662 33.8945C0.830143 33.9054 0.524575 34.0478 0.317226 34.2887C0.0989634 34.5296 -0.010168 34.8362 0.000745104 35.1648C0.0116582 35.4823 0.153529 35.789 0.393618 35.997C0.633706 36.216 0.939274 36.3256 1.26667 36.3146H12.3217L12.7473 33.9054H1.25575C1.22302 33.8945 1.17936 33.8945 1.14662 33.8945Z" fill="#EAB054"/>
<path d="M41.2432 20.2536C43.4899 18.1603 44.9476 15.2231 44.9476 11.9133C44.9476 5.58952 39.7965 0.438477 33.4728 0.438477C29.9438 0.438477 26.7655 2.04955 24.6612 4.57027C24.6283 4.54835 24.6064 4.52643 24.5735 4.50451L23.2255 6.53205C23.2584 6.56493 23.2912 6.58685 23.3241 6.61973C22.4912 8.20889 22.009 10.0063 22.009 11.9242C22.009 13.8312 22.5021 15.6176 23.346 17.1849C22.9625 17.5465 22.546 17.8644 22.0966 18.1274C21.6802 18.3685 21.4391 18.8398 21.5048 19.322C21.5706 19.8042 21.9103 20.1988 22.3816 20.3303C23.0063 20.5056 23.62 20.7358 24.2119 20.9879C19.1814 23.6839 15.3674 28.4624 13.7782 34.2491H13.6029L13.1864 36.6602H13.2522C13.0659 37.8438 12.9453 39.0494 12.9453 40.2878C12.9453 40.9564 13.4823 41.4934 14.1509 41.4934H52.7947C53.4632 41.4934 54.0003 40.9564 54.0003 40.2878C54.0003 31.2352 48.7396 23.5086 41.2432 20.2536ZM15.4441 39.0823C15.9263 30.8077 21.2308 23.9689 28.3656 21.7441C28.8149 21.6016 29.1437 21.218 29.1985 20.7468C29.2643 20.2755 29.0451 19.8261 28.6505 19.5741C26.1079 17.963 24.4091 15.1464 24.4091 11.9133C24.4091 6.89372 28.4533 2.86056 33.4618 2.86056C38.4814 2.86056 42.5145 6.90468 42.5145 11.9133C42.5145 15.1464 40.8158 17.974 38.2731 19.5741C37.8786 19.8261 37.6594 20.2864 37.7251 20.7468C37.7799 21.2071 38.1087 21.6016 38.5581 21.7441C45.6928 23.9689 50.9973 30.8077 51.4795 39.0823H15.4441Z" fill="#515151"/>
</svg>
