<svg width="59" height="57" viewBox="0 0 59 57" fill="none" xmlns="http://www.w3.org/2000/svg">
<path d="M42.2755 14.0284H16.5338C15.66 14.0289 14.9488 13.3264 14.9375 12.4531V8.70821C14.9375 7.82349 15.6491 7.10314 16.5338 7.0918H42.2755C43.1602 7.10322 43.8718 7.82351 43.8718 8.70821V12.4531C43.8604 13.3264 43.1492 14.0289 42.2755 14.0284ZM16.5338 8.62648V12.4532H42.3375V8.66764L16.5338 8.62648Z" fill="#EAB054"/>
<path d="M17.2909 22.7879H15.4493C14.6354 22.7879 13.8547 22.4645 13.2792 21.889C12.7033 21.313 12.3799 20.5324 12.3799 19.7186V12.4951H20.3602V19.7186C20.3602 20.5325 20.0368 21.3131 19.4613 21.889C18.8858 22.4645 18.1052 22.7879 17.2909 22.7879ZM13.9146 14.0297V19.7185C13.9091 20.1273 14.069 20.5206 14.3581 20.8097C14.6472 21.0988 15.041 21.2587 15.4493 21.2532H17.2909C18.1386 21.2532 18.8256 20.5658 18.8256 19.7185V14.0297H13.9146Z" fill="#515151"/>
<path d="M10.8451 22.7879H8.94235C8.12842 22.7879 7.34733 22.4645 6.77193 21.889C6.19642 21.313 5.87305 20.5324 5.87305 19.7186V12.4951H13.8534V19.7186C13.8534 20.522 13.5387 21.2935 12.9764 21.8676C12.4137 22.4413 11.6486 22.7719 10.8451 22.7879ZM7.46882 14.0297V19.7185C7.46334 20.1273 7.6232 20.5206 7.91233 20.8097C8.20146 21.0988 8.59517 21.2587 9.0035 21.2532H10.8451C11.6928 21.2532 12.3798 20.5658 12.3798 19.7185V14.0297H7.46882Z" fill="#515151"/>
<path d="M23.7362 22.7879H21.8946C21.0807 22.7879 20.3001 22.4645 19.7245 21.889C19.1486 21.313 18.8252 20.5324 18.8252 19.7186V12.4951H26.8055V19.7186C26.8055 20.5325 26.4822 21.3131 25.9066 21.889C25.3311 22.4645 24.5505 22.7879 23.7362 22.7879ZM20.3599 14.0297V19.7185C20.3544 20.1273 20.5143 20.5206 20.8034 20.8097C21.0926 21.0988 21.4863 21.2587 21.8946 21.2532H23.7362C24.5839 21.2532 25.2709 20.5658 25.2709 19.7185V14.0297H20.3599Z" fill="#515151"/>
<path d="M30.4685 22.7879H28.6269C27.8125 22.7879 27.0319 22.4645 26.4565 21.889C25.881 21.313 25.5576 20.5324 25.5576 19.7186V12.4951H33.4968V19.7186C33.4968 20.5257 33.1789 21.2998 32.6125 21.8745C32.0457 22.4491 31.2751 22.777 30.4685 22.788V22.7879ZM27.0922 14.0297V19.7185C27.0922 20.5658 27.7792 21.2532 28.6269 21.2532H30.4685C30.8769 21.2587 31.2706 21.0988 31.5597 20.8097C31.8488 20.5206 32.0087 20.1273 32.0032 19.7185V14.0297H27.0922Z" fill="#515151"/>
<path d="M36.9148 22.7879H35.0732C34.2588 22.7879 33.4782 22.4645 32.9028 21.889C32.3273 21.313 32.0039 20.5324 32.0039 19.7186V12.4951H39.9842V19.7186C39.9842 20.5325 39.6609 21.3131 39.0849 21.889C38.5094 22.4645 37.7288 22.7879 36.9148 22.7879ZM33.4974 14.0297V19.7185C33.4974 20.5658 34.1843 21.2532 35.032 21.2532H36.8737C37.2825 21.2587 37.6762 21.0988 37.9648 20.8097C38.254 20.5206 38.4138 20.1273 38.4083 19.7185V14.0297H33.4974Z" fill="#515151"/>
<path d="M43.3601 22.7879H41.5185C40.7041 22.7879 39.9235 22.4645 39.3481 21.889C38.7726 21.313 38.4492 20.5324 38.4492 19.7186V12.4951H46.4296V19.7186C46.4296 20.5325 46.1062 21.3131 45.5302 21.889C44.9547 22.4645 44.1741 22.7879 43.3601 22.7879ZM39.9838 14.0297V19.7185C39.9838 20.5658 40.6708 21.2532 41.5185 21.2532H43.3601C43.7685 21.2587 44.1622 21.0988 44.4513 20.8097C44.7404 20.5206 44.9003 20.1273 44.8948 19.7185V14.0297H39.9838Z" fill="#515151"/>
<path d="M49.867 22.7879H48.0254C47.2114 22.7879 46.4303 22.4645 45.8549 21.889C45.2794 21.313 44.9561 20.5324 44.9561 19.7186V12.4951H52.9364V19.7186C52.9364 20.5325 52.613 21.3131 52.0375 21.889C51.462 22.4645 50.6808 22.7879 49.867 22.7879ZM46.4295 14.0297V19.7185C46.4295 20.5658 47.1165 21.2532 47.9642 21.2532H49.867C50.2758 21.2587 50.6695 21.0988 50.9581 20.8097C51.2473 20.5206 51.4071 20.1273 51.4017 19.7185V14.0297H46.4295Z" fill="#515151"/>
<path d="M39.8404 8.6268H18.9688L19.1734 7.66533C20.0229 4.70015 22.1244 2.25332 24.9275 0.965708C27.7306 -0.321903 30.9557 -0.321903 33.7587 0.965708C36.5619 2.25332 38.6633 4.70015 39.5129 7.66533L39.8404 8.6268ZM21.0559 7.09211H37.7532H37.7528C36.832 4.88194 35.0721 3.12709 32.8596 2.21271C30.6466 1.29784 28.1619 1.29784 25.9489 2.21271C23.7364 3.12712 21.9765 4.88194 21.0557 7.09211H21.0559Z" fill="#EAB054"/>
<path d="M49.6625 56.9997H9.147V26.3061C9.11 26.0809 9.17394 25.8512 9.32193 25.6771C9.46946 25.5031 9.68596 25.4031 9.91434 25.4031C10.1427 25.4031 10.3592 25.5031 10.5067 25.6771C10.6547 25.8512 10.7187 26.0809 10.6817 26.3061V55.5673H48.1279V24.8737C48.0909 24.6485 48.1548 24.4188 48.3028 24.2448C48.4503 24.0707 48.6668 23.9707 48.8952 23.9707C49.1236 23.9707 49.3401 24.0707 49.4876 24.2448C49.6356 24.4188 49.6995 24.6485 49.6625 24.8737V56.9997Z" fill="#515151"/>
<path d="M22.816 57C22.3866 57 22.0386 56.652 22.0386 56.2226V24.6696C22.0016 24.4444 22.0655 24.2147 22.2135 24.0407C22.3611 23.8666 22.5776 23.7666 22.8059 23.7666C23.0343 23.7666 23.2508 23.8666 23.3983 24.0407C23.5463 24.2147 23.6103 24.4444 23.5733 24.6696V56.2226C23.5733 56.6442 23.2376 56.9891 22.816 57Z" fill="#515151"/>
<path d="M21.1595 40.1193C21.1595 40.9899 20.4538 41.6952 19.5836 41.6952C18.7135 41.6952 18.0078 40.9899 18.0078 40.1193C18.0078 39.2492 18.7135 38.5439 19.5836 38.5439C20.4538 38.5439 21.1595 39.2492 21.1595 40.1193Z" fill="#EAB054"/>
<path d="M58.0523 56.9998H0.757556C0.553388 57.0003 0.35744 56.9176 0.21494 56.771C0.0724282 56.6248 -0.00521192 56.4266 0.000272001 56.2224C-0.00520912 56.0201 0.0728952 55.8241 0.215864 55.6807C0.359288 55.5377 0.555224 55.4596 0.757568 55.4651H58.0523C58.2565 55.4596 58.4547 55.5373 58.6008 55.6798C58.7475 55.8223 58.8301 56.0182 58.8297 56.2224C58.8297 56.6518 58.4816 56.9998 58.0523 56.9998Z" fill="#515151"/>
<path d="M29.4047 39.3202C29.2074 39.3238 29.0165 39.2507 28.8726 39.1155C28.5789 38.8136 28.5789 38.3331 28.8726 38.0312L38.6946 27.9635C38.9887 27.6584 39.4742 27.6492 39.7793 27.9429C40.0845 28.2371 40.0936 28.7226 39.7994 29.0277L29.9775 39.0954V39.095C29.8286 39.2503 29.6194 39.3325 29.4047 39.3202Z" fill="#EAB054"/>
<path d="M29.4046 45.9305C29.0972 45.9245 28.8223 45.7382 28.7026 45.455C28.5834 45.1718 28.6419 44.8448 28.852 44.6205L38.6739 34.6351C38.8164 34.4889 39.0124 34.4062 39.2165 34.4062C39.4207 34.4062 39.6162 34.4889 39.7587 34.6351C40.0524 34.937 40.0524 35.4179 39.7587 35.7194L29.9367 45.7871C29.781 45.8949 29.5933 45.9455 29.4046 45.9305Z" fill="#EAB054"/>
<path d="M29.4046 53.1942C29.0972 53.1883 28.8223 53.0019 28.7026 52.7187C28.5834 52.4355 28.6419 52.1085 28.852 51.8843L38.6739 41.8165V41.817C38.9809 41.5585 39.4339 41.5754 39.7199 41.8563C40.0062 42.1372 40.0318 42.5898 39.7792 42.9013L29.9573 53.0508C29.7961 53.1631 29.6001 53.2143 29.4046 53.1942Z" fill="#EAB054"/>
</svg>
