<svg width="71" height="76" viewBox="0 0 71 76" fill="none" xmlns="http://www.w3.org/2000/svg">
<path d="M54.1936 8.58284L21.257 15.7749L20.4035 11.8663C20.3424 11.605 20.3952 11.3303 20.5483 11.1102C20.7014 10.8896 20.9407 10.7449 21.207 10.7112L34.6916 7.76672C35.2791 7.66609 35.8371 8.05941 35.9393 8.64602L36.3339 10.4528C36.4507 10.9878 36.9792 11.3268 37.5141 11.21C38.0491 11.0932 38.3881 10.5647 38.2713 10.0298L37.8768 8.22296C37.7154 7.42769 37.2446 6.72855 36.568 6.27954C35.8915 5.83101 35.0645 5.66858 34.2685 5.82927L20.7839 8.77379C20.0012 8.91571 19.3105 9.37145 18.8728 10.0356C18.4346 10.6995 18.2877 11.5141 18.466 12.2893L19.3195 16.198L5.75738 19.1594C4.72985 19.3838 3.83335 20.0073 3.26507 20.8925C2.69727 21.7782 2.50425 22.8529 2.72862 23.8804L8.96868 52.4572C9.19306 53.4847 9.81653 54.3812 10.7018 54.9495C11.5874 55.5173 12.6622 55.7103 13.6897 55.486L29.5336 52.0263L29.4059 50.0243L13.2675 53.5483C12.7538 53.6605 12.2162 53.564 11.7736 53.2801C11.331 52.9962 11.0192 52.5477 10.907 52.0339L6.3592 31.207L11.6872 30.0435L12.3218 32.9497C12.3779 33.2066 12.5338 33.4308 12.7551 33.5728C12.9763 33.7147 13.2451 33.763 13.502 33.7069L17.3769 32.8608C17.6338 32.8047 17.858 32.6488 18 32.4275C18.142 32.2062 18.1902 31.9374 18.1341 31.6805L17.4995 28.7743L23.7962 27.3994C24.3312 27.2826 24.6702 26.7541 24.5534 26.2191C24.4366 25.6842 23.9081 25.3451 23.3731 25.4619L5.93614 29.2695L4.66695 23.4572C4.55476 22.9434 4.65123 22.4058 4.93518 21.9632C5.21912 21.5206 5.66756 21.2089 6.18133 21.0967L54.6175 10.5201C55.1312 10.4079 55.6688 10.5044 56.1114 10.7883C56.554 11.0723 56.8658 11.5207 56.978 12.0345L58.2472 17.8468L40.8101 21.6544C40.2752 21.7712 39.9361 22.2997 40.053 22.8346C40.1698 23.3696 40.6983 23.7086 41.2332 23.5918L47.5299 22.2169L48.1645 25.123C48.2206 25.3799 48.3765 25.6041 48.5978 25.7461C48.8191 25.8881 49.0879 25.9363 49.3448 25.8802L53.2196 25.0341C53.4765 24.978 53.7008 24.8221 53.8427 24.6008C53.9847 24.3795 54.0329 24.1107 53.9768 23.8538L53.3422 20.9477L58.6702 19.7842L63.218 40.6112C63.3302 41.125 63.2337 41.6626 62.9498 42.1052C62.6659 42.5478 62.2174 42.8595 61.7037 42.9717L45.6616 46.4747L46.3658 48.3508L62.1266 44.9092C63.1541 44.6848 64.0506 44.0614 64.6189 43.1761C65.1867 42.2905 65.3797 41.2157 65.1554 40.1882L58.9153 11.6114C58.6909 10.5839 58.0675 9.6874 57.1822 9.11912C56.2966 8.55132 55.2218 8.35829 54.1943 8.58266L54.1936 8.58284ZM15.9838 31.1352L14.0463 31.5582L13.6233 29.6208L15.5607 29.1977L15.9838 31.1352ZM51.8265 23.3085L49.8891 23.7316L49.466 21.7941L51.4035 21.3711L51.8265 23.3085Z" fill="#515151" fill-opacity="0.9"/>
<path d="M36.1192 26.7388C36.5351 26.6117 36.8198 26.2288 36.8214 25.7939L36.8021 19.7341L36.7915 19.6856L36.7919 19.6855C36.7697 19.1272 36.5038 18.6067 36.0645 18.2609C35.6485 17.9435 35.1142 17.8246 34.603 17.9357L27.4639 19.4946C26.9516 19.6033 26.5129 19.9307 26.2641 20.391C26.0088 20.888 25.9841 21.472 26.1966 21.9887L26.2072 22.0372L28.7157 27.5535L28.7162 27.5534C28.9127 27.9867 29.3894 28.2192 29.852 28.1073L30.012 28.0724L32.259 63.8344C32.2811 64.1866 32.4889 64.501 32.8043 64.6591L41.4485 68.9929L41.449 68.9928C41.869 69.2065 42.3814 69.0946 42.6741 68.7253L48.5607 61.2185C48.7734 60.9455 48.8285 60.5819 48.7062 60.2579L36.1192 26.7388ZM34.6933 63.3632L42.278 48.7369L43.3533 51.5927L36.7049 64.3707L34.6933 63.3632ZM28.0949 21.3866L34.8181 19.9185L34.8344 24.9895L30.194 26.0028L28.0949 21.3866ZM34.1624 27.1661L41.3416 46.2621L34.0271 60.312L31.9685 27.6452L34.1624 27.1661ZM41.6261 66.8531L38.4852 65.2962L44.2931 54.1072L46.6865 60.4199L41.6261 66.8531Z" fill="#EAB054"/>
<path d="M32.9537 22.8621C33.0705 23.397 32.7314 23.9255 32.1965 24.0423C31.6615 24.1591 31.133 23.8201 31.0162 23.2851C30.8994 22.7502 31.2385 22.2217 31.7734 22.1049C32.3084 21.9881 32.8369 22.3271 32.9537 22.8621Z" fill="#515151" fill-opacity="0.9"/>
</svg>
