<svg width="58" height="58" viewBox="0 0 58 58" fill="none" xmlns="http://www.w3.org/2000/svg">
<path d="M30.2986 10.3877H27.7016C27.2236 10.3877 26.8359 10.7753 26.8359 11.2534C26.8359 11.7314 27.2236 12.119 27.7016 12.119H30.2986C30.7771 12.119 31.1643 11.7314 31.1643 11.2534C31.1643 10.7753 30.7771 10.3877 30.2986 10.3877Z" fill="#515151"/>
<path d="M30.5862 19.4777C30.5862 18.92 30.2313 18.4678 29.7927 18.4678H28.2056C27.7674 18.4678 27.4121 18.92 27.4121 19.4777C27.4121 20.0354 27.7674 20.4877 28.2056 20.4877H29.7927C30.2313 20.4877 30.5862 20.0354 30.5862 19.4777Z" fill="#515151"/>
<path d="M29.7927 49.9203C30.2313 49.9203 30.5862 49.4681 30.5862 48.9103C30.5862 48.3526 30.2313 47.9004 29.7927 47.9004H28.2056C27.7674 47.9004 27.4121 48.3526 27.4121 48.9103C27.4121 49.4681 27.7674 49.9203 28.2056 49.9203H29.7927Z" fill="#515151"/>
<path d="M14.4277 18.1333V31.7413L16.2492 31.199V18.1326C16.2448 17.4074 16.5294 16.7104 17.0417 16.1936C17.554 15.6771 18.2517 15.3831 18.9815 15.3767H39.0182C39.7484 15.3831 40.4461 15.6771 40.9584 16.1936C41.4707 16.7104 41.7553 17.4074 41.7505 18.1326V23.6057L43.572 23.0634V18.1326C43.5765 16.9281 43.0995 15.7708 42.2457 14.9151C41.3919 14.0591 40.2314 13.5745 39.0182 13.5677H35.8306V2.65872C35.8224 1.94682 35.5301 1.2668 35.0182 0.768545C34.5059 0.270255 33.8155 -0.00635013 33.0983 0.000110689H24.9015C24.1847 -0.00635013 23.4943 0.270255 22.9821 0.768545C22.4698 1.26683 22.1778 1.94679 22.1693 2.65872V13.5677H18.9817C17.7688 13.5745 16.6084 14.0591 15.7546 14.9151C14.9007 15.7708 14.4238 16.9281 14.4279 18.1326L14.4277 18.1333ZM23.9907 2.65936C24.0069 2.17561 24.4143 1.79563 24.9014 1.80976H33.0982C33.5857 1.79563 33.9931 2.17561 34.009 2.65936V13.5683H23.9907V2.65936Z" fill="#515151"/>
<path d="M41.7506 49.7298C41.7555 50.4628 41.4705 51.1677 40.9586 51.6897C40.4463 52.2117 39.7486 52.5088 39.0183 52.5153H18.9816C18.2518 52.5088 17.554 52.2117 17.0417 51.6897C16.5294 51.1677 16.2448 50.4629 16.2493 49.7298V41.9917L14.4277 42.4251V49.7299C14.4249 50.8682 14.8421 51.9677 15.5987 52.8153C16.3558 53.663 17.3987 54.1993 18.5262 54.3205V56.1722C18.527 56.6571 18.7189 57.1219 19.0604 57.4643C19.402 57.8072 19.8651 58.0002 20.3477 58.0006H22.1692C22.6522 58.0002 23.1153 57.8072 23.4568 57.4643C23.7984 57.1219 23.9903 56.6571 23.9907 56.1722V54.3438H34.009V56.1722C34.0099 56.6571 34.2018 57.1219 34.5433 57.4643C34.8848 57.8072 35.3479 58.0002 35.8305 58.0006H37.6521C38.1351 58.0002 38.5982 57.8072 38.9397 57.4643C39.2813 57.1219 39.4732 56.6571 39.4736 56.1722V54.3205C40.6015 54.1993 41.6443 53.663 42.401 52.8153C43.1581 51.9676 43.5752 50.8681 43.572 49.7299V35.4932L41.7505 35.9262L41.7506 49.7298ZM22.1708 56.1722H20.3481V54.3437H22.17L22.1708 56.1722ZM35.8312 56.1722V54.3437H37.6531L37.6539 56.1722H35.8312Z" fill="#515151"/>
<path d="M23.2021 25.7753L27.2553 27.9437L29.721 27.1994L24.0495 24.1653H24.0499C23.5632 23.924 23.0022 23.883 22.4861 24.0514L19.0217 25.2941L19.0221 25.2937C18.6461 25.4189 18.3529 25.7187 18.2349 26.0991C18.1166 26.4794 18.1873 26.8943 18.4256 27.2128L20.4163 30.0089L22.2487 29.4561L20.3287 26.7593L23.0742 25.7737H23.0746C23.1171 25.7692 23.1599 25.7696 23.2023 25.7753L23.2021 25.7753Z" fill="#EAB054"/>
<path d="M57.9987 28.1621C58.0351 26.9448 56.7889 26.0795 54.3022 25.5916V25.5912C54.2172 25.5582 54.1395 25.5096 54.0732 25.4477C53.043 24.2794 51.5217 23.6621 49.6738 23.6621C48.5033 23.6766 47.3429 23.8836 46.2404 24.2742L11.6541 34.5752C11.4635 34.6186 11.2685 34.6395 11.0731 34.6371C10.3743 34.6407 9.68853 34.4527 9.09088 34.0933L5.75768 31.5368V31.5364C5.0658 30.9979 4.15748 30.8166 3.30979 31.0481C3.26083 31.0634 0.967126 32.2498 0.967126 32.2498C0.491717 32.4021 0.13242 32.7924 0.0215587 33.2759C-0.0686685 33.7883 0.12837 34.3092 0.536629 34.6351L6.64824 40.5423C6.66078 40.5547 6.67414 40.5664 6.68708 40.578C7.58532 41.2842 8.69756 41.6684 9.84305 41.6676C10.1408 41.6692 10.4378 41.6371 10.7279 41.5707L24.0711 38.4306L23.5653 44.7976L23.5657 44.798C23.5293 45.175 23.6669 45.5479 23.9396 45.8128C24.2123 46.0776 24.591 46.2054 24.9697 46.1608L28.4343 45.7939C28.9729 45.7183 29.4588 45.4318 29.7837 44.9981L36.2655 35.5606L55.1988 31.1051C55.2235 31.0995 55.2485 31.0923 55.2724 31.0846C57.864 30.241 58.0181 28.6604 57.9986 28.1624L57.9987 28.1621ZM54.7428 29.3622L37.7816 33.3535L37.9066 33.1718C38.1887 32.7611 38.0818 32.2008 37.6683 31.9207C37.2548 31.6406 36.6908 31.7467 36.4088 32.1574L28.3122 43.9493C28.2924 43.969 28.2398 44.0003 28.2418 44.0036L25.4241 44.3022L26.0488 36.429L27.386 36.0829L27.3856 36.0825C27.8695 35.9567 28.1592 35.4656 28.033 34.9849C27.9072 34.5042 27.4131 34.2157 26.9293 34.3399L24.9677 34.8475C24.5938 34.9439 24.3227 35.2654 24.2924 35.6476L24.2208 36.5443L10.31 39.8181C10.1567 39.8519 10.0001 39.868 9.84311 39.8664C9.14153 39.8636 8.45856 39.6413 7.89126 39.2306L2.14021 33.6719L3.91566 32.7495C3.95208 32.7439 3.9889 32.7415 4.02572 32.7419C4.22721 32.7395 4.42426 32.7994 4.58974 32.9127C4.6035 32.9244 8.00787 35.5355 8.00787 35.5355C8.91742 36.1307 9.98396 36.4446 11.0732 36.437C11.4305 36.439 11.7865 36.3968 12.1328 36.3108C12.1328 36.3108 46.8392 25.9748 46.862 25.9655L46.8624 25.9651C47.7651 25.6452 48.7152 25.4752 49.6741 25.4623C51.0032 25.4623 52.0244 25.8562 52.7099 26.6335C53.0368 26.9932 53.4669 27.2452 53.9423 27.3557C55.4304 27.6479 56.0362 28.0273 56.1801 28.1804C56.1737 28.2166 56.1773 28.2539 56.1898 28.2889C56.1664 28.518 55.8443 28.995 54.7425 29.362L54.7428 29.3622Z" fill="#EAB054"/>
<path d="M14.9193 9.25145C13.9749 8.55541 12.8078 8.2538 11.6548 8.40728C10.5018 8.56076 9.4484 9.15821 8.7083 10.0787C7.99189 10.9901 7.67386 12.1648 7.82987 13.3249C7.98947 14.5115 8.61945 15.5777 9.57064 16.272C9.97348 16.5716 10.5367 16.4788 10.8282 16.0653C11.1201 15.6519 11.0296 15.0743 10.6268 14.7747C10.0752 14.3753 9.70897 13.7601 9.61409 13.0744C9.52726 12.4151 9.70857 11.7479 10.1162 11.2305C10.5649 10.6776 11.2017 10.3203 11.8972 10.2308C12.5928 10.1413 13.2955 10.3265 13.8632 10.7486C14.0566 10.893 14.2982 10.9524 14.5342 10.9136C14.7706 10.8753 14.9821 10.7416 15.1224 10.5427C15.2627 10.3443 15.3202 10.0963 15.282 9.85369C15.2438 9.61149 15.1135 9.39447 14.9193 9.2513L14.9193 9.25145Z" fill="#EAB054"/>
<path d="M4.69766 8.34763L6.37279 9.632V9.63158C6.7728 9.93715 7.3309 9.84261 7.62032 9.42013C7.91015 8.99764 7.82153 8.40717 7.42231 8.10031L5.74718 6.81637V6.81679C5.34757 6.51038 4.78828 6.6045 4.49842 7.02698C4.2086 7.44989 4.29765 8.04117 4.69766 8.34763Z" fill="#EAB054"/>
<path d="M3.54748 11.5092L5.54336 12.0883C5.76887 12.1545 6.00808 12.1144 6.20814 11.977C6.40819 11.8401 6.55227 11.6168 6.60943 11.3574C6.66619 11.0976 6.63135 10.8224 6.51155 10.5928C6.39214 10.3631 6.19796 10.1974 5.97245 10.1321L3.97657 9.55342C3.50676 9.41697 3.0303 9.74435 2.91168 10.2843C2.79305 10.8247 3.07767 11.3727 3.54748 11.5092Z" fill="#EAB054"/>
<path d="M6.62898 13.1751C6.59774 12.944 6.46988 12.7341 6.27413 12.5916C6.07839 12.4488 5.83057 12.3856 5.58527 12.4154L3.41116 12.6772H3.41074C2.92304 12.7364 2.56735 13.1418 2.59859 13.6044C2.62941 14.0671 3.03632 14.4273 3.52777 14.4281C3.56733 14.4281 5.82183 14.1585 5.82183 14.1585H5.82224C6.06756 14.1291 6.29037 14.0086 6.44156 13.8242C6.59316 13.6398 6.66022 13.4063 6.62898 13.1751Z" fill="#EAB054"/>
<path d="M7.38535 15.193C7.2657 14.9788 7.06546 14.8199 6.82782 14.7526C6.59059 14.685 6.33592 14.7139 6.12031 14.8331L4.23037 15.8735C4.01434 15.9924 3.85481 16.1913 3.78708 16.4269C3.71895 16.6626 3.74803 16.9155 3.86768 17.1301C4.1211 17.5713 4.6828 17.7314 5.13278 17.49L7.02271 16.4496C7.23874 16.3307 7.39828 16.1318 7.46642 15.8962C7.53414 15.6605 7.505 15.4076 7.38535 15.193Z" fill="#EAB054"/>
<path d="M8.88381 16.6467C8.48293 16.3319 7.8994 16.3969 7.5801 16.7918L6.26228 18.4217C6.10822 18.6118 6.03699 18.8543 6.06432 19.0959C6.09165 19.3375 6.21548 19.5583 6.40806 19.7099C6.60063 19.8616 6.84621 19.9315 7.09097 19.9041C7.33572 19.8767 7.55936 19.7541 7.71259 19.564L9.03041 17.934C9.3497 17.5383 9.28387 16.9623 8.88381 16.6467Z" fill="#EAB054"/>
<path d="M17.5728 5.39335C17.2088 5.07798 16.678 5.14261 16.3872 5.53774L15.1883 7.16943C14.8986 7.56497 14.9585 8.14091 15.3224 8.45586C15.6864 8.77124 16.2168 8.70702 16.5077 8.31229L17.7065 6.6806C17.8459 6.4904 17.9103 6.24824 17.8851 6.0069C17.8602 5.76556 17.748 5.5447 17.5728 5.39335Z" fill="#EAB054"/>
<path d="M13.3501 7.47132C13.8243 7.59927 14.3124 7.31841 14.4454 6.84081L14.9737 4.89173C15.0366 4.66117 15.006 4.41452 14.8889 4.2065C14.7719 3.99888 14.578 3.84638 14.3498 3.78321C14.1213 3.71963 13.8776 3.75102 13.6718 3.86931C13.4663 3.98801 13.3158 4.18437 13.2533 4.41493C13.2533 4.41493 12.7258 6.36153 12.725 6.36442L12.7254 6.36482C12.6052 6.84323 12.8811 7.33252 13.3501 7.47132Z" fill="#EAB054"/>
<path d="M10.3881 6.74071C10.4499 7.17722 10.8162 7.50182 11.2488 7.50222C11.5008 7.49984 11.7395 7.38675 11.9047 7.1923C12.0695 6.99824 12.1449 6.74071 12.1119 6.48595L11.8324 4.51332C11.7639 4.0272 11.3223 3.6903 10.8461 3.76014C10.3702 3.83038 10.0402 4.28117 10.1086 4.76689L10.3881 6.74071Z" fill="#EAB054"/>
<path d="M7.84804 7.66358C8.11317 8.07232 8.66522 8.20072 9.09135 7.95256C9.51668 7.69814 9.64985 7.15667 9.38836 6.74284L8.31375 5.03998C8.18906 4.83973 7.98727 4.69602 7.75322 4.64105C7.51957 4.58569 7.2726 4.62377 7.0676 4.74628C6.8626 4.86879 6.71612 5.0659 6.66083 5.29402C6.60553 5.52214 6.6463 5.76205 6.77341 5.96073L7.84804 7.66358Z" fill="#EAB054"/>
</svg>
