<svg width="68" height="58" viewBox="0 0 68 58" fill="none" xmlns="http://www.w3.org/2000/svg">
<path d="M9.25684 45.5186L33.8529 48.1387L33.687 49.6954L9.091 47.0753L9.25684 45.5186Z" fill="#EAB054"/>
<path d="M10.1855 36.8018L34.7816 39.4219L34.6489 40.6673L10.0529 38.0471L10.1855 36.8018Z" fill="#EAB054"/>
<path d="M33.6943 43.7148L34.317 43.7812L34.1512 45.3379L33.5285 45.2716L33.6943 43.7148Z" fill="black"/>
<path d="M33.217 45.2374L33.5283 45.2705L33.3828 43.6807L33.217 45.2374Z" fill="black"/>
<path d="M19.0612 42.156L16.8818 41.9238L16.716 43.4805L18.8954 43.7127L19.0612 42.156Z" fill="black"/>
<path d="M27.1561 43.0183L25.2881 42.8193L25.1223 44.376L26.9903 44.575L27.1561 43.0183Z" fill="black"/>
<path d="M29.335 43.25L31.5144 43.4822L31.3485 45.0389L29.1691 44.8067L29.335 43.25Z" fill="#EAB054"/>
<path d="M23.0093 42.5761L20.9287 42.3545L20.7629 43.9112L22.9423 44.1434L23.0093 42.5761Z" fill="#EAB054"/>
<path d="M14.702 41.6912L12.834 41.4922L12.6682 43.0489L14.5362 43.2479L14.702 41.6912Z" fill="#EAB054"/>
<path d="M9.7207 41.1611L10.6547 41.2606L10.4889 42.8173L9.55487 42.7178L9.7207 41.1611Z" fill="black"/>
<path d="M4.68606 32.4255L5.33815 32.6886L3.66561 48.3891C3.52282 49.7295 4.55338 51.0009 5.89784 51.1441L56.8108 56.5677C58.1557 56.711 59.4306 55.6848 59.5733 54.3448L61.97 31.8469L64.0329 26.1603L65.5587 21.8692C65.9898 20.5595 65.3638 19.1372 64.0495 18.707L15.747 1.55434C14.433 1.12419 12.9963 1.84255 12.5754 3.05631C12.5856 2.96038 10.5023 8.83835 3.17728 29.2622C2.74664 30.5715 3.37216 31.9938 4.6865 32.4244L4.68606 32.4255ZM12.0899 8.52459L53.372 23.1856L18.5975 19.4807L9.42835 16.1803L12.0899 8.52459ZM12.4496 18.8258L9.3756 18.4983L8.89519 18.4472L8.79893 18.4369L8.60685 18.4165L8.90094 17.4793L12.4496 18.8258ZM58.1319 54.1921C58.0707 54.7664 57.5393 55.194 56.9631 55.1326L6.05006 49.709C5.47383 49.6476 5.04443 49.1176 5.10561 48.5433L8.05294 20.876C8.11412 20.3017 8.64553 19.8741 9.22176 19.9355L59.2695 25.2669L60.9579 25.834C61.3771 26.4594 60.9623 26.7059 60.5381 31.5985L58.1319 54.1921ZM13.8783 3.58365C14.0357 3.01962 14.6425 2.79365 15.2085 2.95097L63.5111 20.1025C64.0771 20.2598 64.3043 20.8648 64.1468 21.4288L62.8845 25.0707L61.7622 24.6605C61.6766 24.5543 12.7106 7.23587 12.6159 7.22578L13.8783 3.58365ZM4.5764 29.7998L6.10215 25.5086L5.49025 31.2527L5.21214 31.1261C4.6563 30.8732 4.32314 30.3536 4.5764 29.7998Z" fill="#515151"/>
<path d="M16.5988 31.7242C17.135 32.0757 17.8813 32.253 18.3542 32.3034C20.9071 32.5753 23.1201 30.6537 23.3887 28.1323C23.7502 24.7386 20.5838 22.1456 17.4134 23.181C16.8773 22.8295 16.131 22.6522 15.6581 22.6018C13.2098 22.2432 10.9025 24.1548 10.6236 26.7729C10.2621 30.1665 13.4284 32.7596 16.5988 31.7242ZM22.0644 27.9916C21.8784 29.7371 20.3053 31.0404 18.6034 30.8591C16.8067 30.6677 15.6485 28.9752 15.8241 27.3269C16.1942 22.9532 22.5189 23.7248 22.0644 27.9916ZM15.8813 24.0964C15.0321 24.8885 14.425 26.0986 14.3114 27.1653C14.1874 28.3291 14.526 29.6399 15.1996 30.4961C13.1931 30.4784 11.8563 28.669 12.0422 26.9236C12.2385 25.0814 13.9162 23.691 15.8813 24.0964Z" fill="#EAB054"/>
</svg>
