<svg width="86" height="116" viewBox="0 0 86 116" fill="none" xmlns="http://www.w3.org/2000/svg">
<path d="M80.905 0H5.78789C4.43381 0 3.12563 0.558477 2.13876 1.53581C1.17484 2.51314 0.624023 3.83952 0.624023 5.23571V110.788C0.624023 112.16 1.17484 113.487 2.13876 114.464C3.10268 115.442 4.41086 116 5.76495 116H80.882C82.2361 116 83.5443 115.442 84.5082 114.464C85.4722 113.487 86 112.16 86 110.788V13.5663V13.543V13.5198V5.21244C86 3.83952 85.4722 2.51314 84.5082 1.53581C83.5673 0.558477 82.2591 0.0232698 80.905 0ZM5.78789 2.60622H80.905C82.3279 2.60622 83.4755 3.76971 83.4755 5.21244V12.2399H3.21743V5.21244C3.21743 3.79298 4.36496 2.62949 5.78789 2.60622ZM83.4755 100.177C83.3378 100.107 83.1771 100.083 83.0165 100.083H74.8461V62.1537C74.8461 61.8046 74.7084 61.4788 74.4789 61.2229C74.2264 60.9669 73.9051 60.8506 73.5608 60.8506H58.2987C57.5873 60.8506 57.0135 61.4323 57.0135 62.1537V100.083H52.2627V70.9031C52.2627 70.5541 52.125 70.2283 51.8955 69.9723C51.6431 69.7164 51.3218 69.6 50.9775 69.6H35.7154C35.0039 69.6 34.4302 70.1818 34.4302 70.9031V100.083H29.6794V36.6267C29.6794 36.2776 29.5417 35.9519 29.3122 35.6959C29.0597 35.4399 28.7384 35.3236 28.3942 35.3236H13.1321C12.4206 35.3236 11.8468 35.9053 11.8468 36.6267V100.083H3.67645C3.51579 100.083 3.35514 100.107 3.21743 100.177V14.8461H83.4755V100.177ZM63.6691 63.4568L72.2756 72.183V77.0463L59.584 64.1781V63.4568H63.6691ZM72.2756 85.5864L59.584 72.7182V67.8548L72.2756 80.723V85.5864ZM59.584 76.3948L72.2756 89.263V94.1264L59.584 81.2582V76.3948ZM72.2756 68.483L67.3183 63.4568H72.2756V68.483ZM59.584 93.4981L66.079 100.083H59.584V93.4981ZM69.7281 100.083L59.584 89.8215V84.9581L72.2756 97.8263V100.107L69.7281 100.083ZM49.6923 100.083H37.0006V72.2062H49.6923V100.083ZM27.1089 59.943L14.4173 47.0748V42.2114L27.1089 55.0796V59.943ZM27.1089 63.6429V68.5063L14.4173 55.6381V50.7747L27.1089 63.6429ZM27.1089 72.183V77.0463L14.4173 64.1781V59.3147L27.1089 72.183ZM27.1089 80.723V85.5864L14.4173 72.7182V67.8548L27.1089 80.723ZM14.4173 76.4181L27.1089 89.2863V94.1496L14.4173 81.2814V76.4181ZM27.1089 42.8863L22.2434 37.9531H27.1089V42.8863ZM18.5943 37.9298L27.1089 46.5629V51.403L14.4173 38.5348V37.9298H18.5943ZM14.4173 93.4981L20.9123 100.083H14.4173V93.4981ZM24.5385 100.083L14.4173 89.8215V84.9581L27.1089 97.8263V100.107L24.5385 100.083ZM80.905 113.371H5.78789C4.36496 113.371 3.21743 112.207 3.21743 110.764V102.597C3.35514 102.666 3.51579 102.69 3.67645 102.69H83.0165C83.1771 102.69 83.3378 102.666 83.4755 102.597V110.764C83.4755 112.207 82.3279 113.371 80.905 113.371Z" fill="#515151"/>
<path d="M79.0357 8.35209C79.5906 8.35209 80.1224 8.12088 80.3305 7.78177C80.5386 7.42724 80.423 7.02647 80.0299 6.76443C79.6369 6.50238 79.0357 6.42531 78.5039 6.56404C77.9721 6.70277 77.6484 7.04188 77.6484 7.42724C77.6484 7.93591 78.2727 8.35209 79.0357 8.35209Z" fill="#EAB054"/>
<path d="M72.5396 8.35209C73.0945 8.35209 73.6263 8.12088 73.8344 7.78177C74.0425 7.42724 73.9269 7.02647 73.5338 6.76443C73.1408 6.50238 72.5396 6.42531 72.0078 6.56404C71.476 6.70277 71.1523 7.04188 71.1523 7.42724C71.1523 7.93591 71.7766 8.35209 72.5396 8.35209Z" fill="#EAB054"/>
<path d="M66.0435 8.35209C66.5984 8.35209 67.1302 8.12088 67.3383 7.78177C67.5464 7.42724 67.4308 7.02647 67.0378 6.76443C66.6447 6.50238 66.0435 6.42531 65.5117 6.56404C64.98 6.70277 64.6562 7.04188 64.6562 7.42724C64.6562 7.93591 65.2805 8.35209 66.0435 8.35209Z" fill="#EAB054"/>
<path d="M74.694 40.832H62.4899C61.7581 40.832 61.168 41.4535 61.168 42.224C61.168 42.9946 61.7581 43.616 62.4899 43.616H74.694C75.4258 43.616 76.016 42.9946 76.016 42.224C76.016 41.4535 75.4258 40.832 74.694 40.832Z" fill="#EAB054"/>
<path d="M58.752 49.1841H74.7201C75.4375 49.1841 76.0161 48.7698 76.0161 48.2561C76.0161 47.7424 75.4375 47.3281 74.7201 47.3281H58.752C58.0346 47.3281 57.4561 47.7424 57.4561 48.2561C57.4561 48.7698 58.0346 49.1841 58.752 49.1841Z" fill="#EAB054"/>
<path d="M62.4899 25.056H74.694C75.4258 25.056 76.016 24.4345 76.016 23.664C76.016 22.8934 75.4258 22.272 74.694 22.272H62.4899C61.7581 22.272 61.168 22.8934 61.168 23.664C61.168 24.4345 61.7581 25.056 62.4899 25.056Z" fill="#EAB054"/>
<path d="M58.752 30.6241H74.7201C75.4375 30.6241 76.0161 30.2098 76.0161 29.6961C76.0161 29.1824 75.4375 28.7681 74.7201 28.7681H58.752C58.0346 28.7681 57.4561 29.1824 57.4561 29.6961C57.4561 30.2098 58.0346 30.6241 58.752 30.6241Z" fill="#EAB054"/>
</svg>
