<svg width="48" height="51" viewBox="0 0 48 51" fill="none" xmlns="http://www.w3.org/2000/svg">
<path d="M3.05791 32.8918H0V24.2741C0 19.1016 2.0139 14.239 5.67089 10.582C9.32609 6.92255 14.1901 4.90723 19.3675 4.90723V6.575C14.6365 6.575 10.1917 8.41677 6.85117 11.7607C3.50927 15.1033 1.66858 19.5468 1.66858 24.2744V31.2243H3.05871L3.05791 32.8918Z" fill="#515151"/>
<path d="M38.7347 32.8919H35.6768V31.2241H37.0669V24.2741C37.0669 22.8886 36.9052 21.5085 36.5856 20.1722L38.208 19.7842C38.5577 21.2473 38.7347 22.7579 38.7347 24.2742L38.7347 32.8919Z" fill="#515151"/>
<path d="M9.20948 14.1187L8.03027 12.9395C11.0585 9.912 15.0843 8.24414 19.3654 8.24414V9.91191C15.5297 9.91226 11.9223 11.4061 9.20877 14.1186L9.20948 14.1187Z" fill="#515151"/>
<path d="M31.2267 39.7507C30.3109 39.7507 29.4495 39.3941 28.802 38.7472C28.1544 38.0989 27.7979 37.238 27.7979 36.3218V27.7966C27.7979 26.8805 28.1545 26.0191 28.802 25.3723C29.4506 24.7247 30.3109 24.3682 31.2267 24.3682C32.1421 24.3682 33.0027 24.7248 33.651 25.3723C34.2985 26.0195 34.6551 26.8805 34.6551 27.7966V30.2059H32.9873V27.7966C32.9873 27.3261 32.8043 26.8839 32.4714 26.5521C32.1386 26.2196 31.6967 26.0359 31.2263 26.0359C30.7558 26.0359 30.3139 26.2193 29.9811 26.5521C29.6489 26.8839 29.4652 27.3261 29.4652 27.7966V36.3218C29.4652 36.7926 29.6485 37.2345 29.9811 37.5674C30.3129 37.8992 30.7554 38.0825 31.2263 38.0825C31.6967 38.0825 32.1389 37.8995 32.4714 37.567C32.804 37.2348 32.9873 36.7923 32.9873 36.3218V33.9125H34.6551V36.3218C34.6551 37.2376 34.2985 38.0989 33.6512 38.7468C33.0033 39.3941 32.1421 39.7507 31.2267 39.7507Z" fill="#515151"/>
<path d="M33.8208 34.7455C32.3388 34.7455 31.1338 33.5398 31.1338 32.0585C31.1338 30.5769 32.3391 29.3711 33.8208 29.3711C35.3028 29.3711 36.5078 30.5768 36.5078 32.0585C36.5082 33.5394 35.3028 34.7455 33.8208 34.7455ZM33.8208 31.0386C33.2588 31.0386 32.8016 31.4958 32.8016 32.0581C32.8016 32.6201 33.2589 33.0773 33.8208 33.0773C34.3828 33.0773 34.84 32.6201 34.84 32.0581C34.8403 31.4958 34.3831 31.0386 33.8208 31.0386Z" fill="#515151"/>
<path d="M7.50498 39.751C6.58919 39.751 5.72786 39.3944 5.08067 38.7475C4.43311 38.0993 4.07654 37.2383 4.07654 36.3221V33.9129H5.74431V36.3221C5.74431 36.793 5.92768 37.2348 6.26019 37.5677C6.592 37.8995 7.03419 38.0829 7.50503 38.0829C7.9755 38.0829 8.41769 37.8999 8.75022 37.5673C9.08274 37.2352 9.26576 36.7926 9.26576 36.3222V27.797C9.26576 27.3265 9.08273 26.8843 8.75022 26.5525C8.41736 26.22 7.97552 26.0362 7.50503 26.0362C7.0349 26.0362 6.59273 26.2196 6.25983 26.5525C5.92767 26.8843 5.7443 27.3265 5.7443 27.797V30.2062L4.07617 30.2059V27.7966C4.07617 26.8805 4.43279 26.0191 5.0803 25.3723C5.72856 24.7247 6.58918 24.3682 7.50462 24.3682C8.42005 24.3682 9.28067 24.7248 9.92893 25.3723C10.5765 26.0195 10.9331 26.8805 10.9331 27.7966V36.3218C10.9331 37.2376 10.5764 38.0989 9.9292 38.7468C9.28164 39.3944 8.42068 39.751 7.50489 39.751L7.50498 39.751Z" fill="#515151"/>
<path d="M4.90869 34.7455C3.42673 34.7455 2.22168 33.5398 2.22168 32.0585C2.22168 30.5769 3.427 29.3711 4.90869 29.3711C6.39066 29.3711 7.59607 30.5768 7.59607 32.0585C7.59607 33.5394 6.39039 34.7455 4.90869 34.7455ZM4.90869 31.0386C4.3467 31.0386 3.88954 31.4958 3.88954 32.0581C3.88954 32.6201 4.34675 33.0773 4.90869 33.0773C5.47103 33.0773 5.92785 32.6201 5.92785 32.0581C5.9282 31.4958 5.47099 31.0386 4.90869 31.0386Z" fill="#515151"/>
<path d="M22.9796 50.6836H18.439C16.957 50.6836 15.752 49.4783 15.752 47.9966C15.752 46.5146 16.9573 45.3096 18.439 45.3096H22.9796V50.6836ZM18.439 46.9771C17.877 46.9771 17.4198 47.4343 17.4198 47.9962C17.4198 48.5582 17.877 49.0154 18.439 49.0154H21.3118V46.9766H18.439V46.9771Z" fill="#515151"/>
<path d="M22.1462 48.8316V47.1638C28.1244 47.1638 32.9878 42.3001 32.9878 36.3223H34.6556C34.6556 43.2198 29.0437 48.8323 22.1455 48.8323L22.1462 48.8316Z" fill="#515151"/>
<path d="M21.3121 26.4408V20.813H18.5322V0.612305H47.9999V20.813H26.939L21.3121 26.4408ZM20.2 19.1451H22.9799V22.4133L26.2488 19.1451H46.3324V2.27963H20.2008L20.2 19.1451Z" fill="#EAB054"/>
<path d="M24.7402 6.17285H31.227V7.84062H24.7402V6.17285Z" fill="#EAB054"/>
<path d="M24.7402 9.87793H41.7908V11.5461H24.7402V9.87793Z" fill="#EAB054"/>
<path d="M24.7402 13.5859H37.8986V15.2537H24.7402V13.5859Z" fill="#EAB054"/>
</svg>
