<svg width="63" height="52" viewBox="0 0 63 52" fill="none" xmlns="http://www.w3.org/2000/svg">
<path d="M61.7629 28.3677L32.0047 0.317247C31.5597 -0.105749 30.8617 -0.105749 30.4167 0.317247L13.7006 16.0709C13.4967 16.2694 13.3815 16.5419 13.3815 16.8262C13.3815 17.111 13.4967 17.3835 13.7006 17.5815L13.8413 17.7222H13.8408C14.2501 18.1192 14.9005 18.1192 15.3097 17.7222L31.2115 2.74148L58.0674 28.0377L54.6456 28.0372L31.9844 7.43509C31.5467 7.03513 30.8762 7.03513 30.4385 7.43509L7.77735 28.051H4.35559L9.14769 23.526C9.35355 23.3285 9.46971 23.0555 9.46971 22.7707C9.46971 22.4855 9.35355 22.2125 9.14769 22.0149L9.01437 21.8816C8.60657 21.4807 7.95321 21.4807 7.54541 21.8816L0.659341 28.3673C0.317704 28.6913 0.207423 29.1902 0.380933 29.6274C0.553953 30.0651 0.97597 30.3534 1.44651 30.3558H8.22027C8.50897 30.3573 8.78737 30.2494 9.00009 30.0539L31.2121 9.83824L53.424 30.0539C53.6368 30.2494 53.9152 30.3573 54.2039 30.3558H60.9776C61.4482 30.3534 61.8702 30.0651 62.0432 29.6274C62.2167 29.1902 62.1064 28.6913 61.7648 28.3673L61.7629 28.3677ZM12.2383 19.1274L12.0976 18.9867V18.9872C11.6888 18.5897 11.0379 18.5897 10.6292 18.9872C10.4233 19.1843 10.3071 19.4573 10.3071 19.7425C10.3071 20.0278 10.4233 20.3003 10.6292 20.4979L10.7698 20.6385C11.1771 21.0395 11.831 21.0395 12.2383 20.6385C12.4402 20.439 12.5539 20.167 12.5539 19.8832C12.5539 19.5989 12.4402 19.3269 12.2383 19.1274Z" fill="#EAB054"/>
<path d="M50.7373 51.9987H37.2598C36.63 51.9909 36.1246 51.4762 36.1286 50.8464V34.3612H26.2914V50.8464C26.2953 51.4762 25.79 51.9909 25.1601 51.9987H11.6826C11.3768 52.0007 11.0822 51.8801 10.8661 51.6635C10.6494 51.4468 10.5283 51.1527 10.5303 50.8464V31.1716C10.5303 30.5354 11.0464 30.0192 11.6826 30.0192C12.3193 30.0192 12.835 30.5354 12.835 31.1716V49.6945H24.0073L24.0078 33.2093C24.0059 32.903 24.1264 32.6089 24.3431 32.3922C24.5597 32.1756 24.8538 32.055 25.1602 32.057H37.2599C37.5663 32.055 37.8604 32.1756 38.077 32.3922C38.2936 32.6089 38.4142 32.903 38.4123 33.2093V49.6945H49.5846L49.5851 31.1377C49.5851 30.501 50.1007 29.9854 50.7374 29.9854C51.3736 29.9854 51.8898 30.501 51.8898 31.1377V50.8476C51.8917 51.154 51.7707 51.4481 51.554 51.6647C51.3379 51.8814 51.0433 52.0019 50.7374 52L50.7373 51.9987Z" fill="#515151"/>
</svg>
