<svg xmlns="http://www.w3.org/2000/svg" xmlns:xlink="http://www.w3.org/1999/xlink" viewBox="0,0,256,256" width="48px" height="48px" fill-rule="nonzero"><g fill="#1f1f1f" fill-rule="nonzero" stroke="none" stroke-width="1" stroke-linecap="butt" stroke-linejoin="miter" stroke-miterlimit="10" stroke-dasharray="" stroke-dashoffset="0" font-family="none" font-weight="none" font-size="none" text-anchor="none" style="mix-blend-mode: normal"><path d="M0,256v-256h256v256z" id="bgRectangle"></path></g><g fill="#ffffff" fill-rule="nonzero" stroke="none" stroke-width="1" stroke-linecap="butt" stroke-linejoin="miter" stroke-miterlimit="10" stroke-dasharray="" stroke-dashoffset="0" font-family="none" font-weight="none" font-size="none" text-anchor="none" style="mix-blend-mode: normal"><g transform="scale(4,4)"><path d="M42.428,2c0.234,3.388 -0.871,6.116 -2.501,8.117c-2.398,2.943 -5.932,4.315 -8.016,3.907c-0.392,-2.351 0.58,-5.352 2.557,-7.771c1.862,-2.278 4.615,-4.039 7.96,-4.253zM32.359,17.045c2.378,0 4.953,-2.41 9.193,-2.41c1.911,0 7.388,0.578 10.408,5.222c-1.2,0.869 -5.632,3.659 -5.632,10.008c0,7.481 6.059,10.07 6.978,10.544c-0.331,1.236 -1.929,5.523 -4.623,8.88c-0.834,1.039 -3.339,5.027 -7.079,5.027c-3.397,0 -4.689,-2.102 -8.608,-2.102c-4.464,0 -4.678,2.14 -9.02,2.14c-0.912,0 -2.25,-0.412 -3.31,-1.345c-3.765,-3.315 -9.973,-11.883 -9.973,-22.569c0,-10.559 7.003,-15.628 13.144,-15.628c3.862,-0.001 6.065,2.233 8.522,2.233z"></path></g></g></svg>