<svg width="55" height="55" viewBox="0 0 55 55" fill="none" xmlns="http://www.w3.org/2000/svg">
<path fill-rule="evenodd" clip-rule="evenodd" d="M39.416 22H53.166V54.9999H39.416V22ZM41.2495 53.1662H51.3331V23.8337H41.2495V53.1662Z" fill="#515151"/>
<path fill-rule="evenodd" clip-rule="evenodd" d="M1.83398 22H15.5839V54.9999H1.83398V22ZM3.66705 53.1662H13.7507V23.8337H3.66705V53.1662Z" fill="#515151"/>
<path fill-rule="evenodd" clip-rule="evenodd" d="M13.75 9.16699H41.2499V55.0005H13.75V9.16699ZM15.5835 53.1668H39.416V11.0006H15.5835V53.1668Z" fill="#515151"/>
<path fill-rule="evenodd" clip-rule="evenodd" d="M54.0837 54.9995H0.916532C0.410505 54.9995 0 54.589 0 54.0829C0 53.5769 0.410505 53.166 0.916532 53.166H54.0837C54.5897 53.166 55.0002 53.5769 55.0002 54.0829C55.0002 54.589 54.5897 54.9995 54.0837 54.9995Z" fill="#515151"/>
<path fill-rule="evenodd" clip-rule="evenodd" d="M19.251 4.58301H35.7509V10.9995H19.251V4.58301ZM21.0844 9.16606H33.9171V6.41607H21.0844V9.16606Z" fill="#515151"/>
<path fill-rule="evenodd" clip-rule="evenodd" d="M27.5005 6.41651C26.9945 6.41651 26.584 6.00601 26.584 5.49998V0.916532C26.584 0.410505 26.9945 0 27.5005 0C28.0065 0 28.417 0.410505 28.417 0.916532V5.49998C28.417 6.00601 28.0065 6.41651 27.5005 6.41651Z" fill="#515151"/>
<path fill-rule="evenodd" clip-rule="evenodd" d="M11 26.5844H6.41653C5.9105 26.5844 5.5 26.1735 5.5 25.6675C5.5 25.1615 5.9105 24.751 6.41653 24.751H11C11.506 24.751 11.9165 25.1615 11.9165 25.6675C11.9165 26.1735 11.506 26.5844 11 26.5844Z" fill="#EAB054"/>
<path fill-rule="evenodd" clip-rule="evenodd" d="M11 30.2495H6.41653C5.9105 30.2495 5.5 29.839 5.5 29.3329C5.5 28.8269 5.9105 28.416 6.41653 28.416H11C11.506 28.416 11.9165 28.8269 11.9165 29.3329C11.9165 29.839 11.506 30.2495 11 30.2495Z" fill="#EAB054"/>
<path fill-rule="evenodd" clip-rule="evenodd" d="M11 33.9161H6.41653C5.9105 33.9161 5.5 33.5056 5.5 32.9995C5.5 32.4935 5.9105 32.083 6.41653 32.083H11C11.506 32.083 11.9165 32.4935 11.9165 32.9995C11.9165 33.5056 11.506 33.9161 11 33.9161Z" fill="#EAB054"/>
<path fill-rule="evenodd" clip-rule="evenodd" d="M11 37.5834H6.41653C5.9105 37.5834 5.5 37.1726 5.5 36.6665C5.5 36.1605 5.9105 35.75 6.41653 35.75H11C11.506 35.75 11.9165 36.1605 11.9165 36.6665C11.9165 37.1726 11.506 37.5834 11 37.5834Z" fill="#EAB054"/>
<path fill-rule="evenodd" clip-rule="evenodd" d="M11 41.2495H6.41653C5.9105 41.2495 5.5 40.839 5.5 40.3329C5.5 39.8269 5.9105 39.416 6.41653 39.416H11C11.506 39.416 11.9165 39.8269 11.9165 40.3329C11.9165 40.839 11.506 41.2495 11 41.2495Z" fill="#EAB054"/>
<path fill-rule="evenodd" clip-rule="evenodd" d="M11 44.9161H6.41653C5.9105 44.9161 5.5 44.5056 5.5 43.9995C5.5 43.4935 5.9105 43.083 6.41653 43.083H11C11.506 43.083 11.9165 43.4935 11.9165 43.9995C11.9165 44.5056 11.506 44.9161 11 44.9161Z" fill="#EAB054"/>
<path fill-rule="evenodd" clip-rule="evenodd" d="M11 48.5834H6.41653C5.9105 48.5834 5.5 48.1726 5.5 47.6665C5.5 47.1605 5.9105 46.75 6.41653 46.75H11C11.506 46.75 11.9165 47.1605 11.9165 47.6665C11.9165 48.1726 11.506 48.5834 11 48.5834Z" fill="#EAB054"/>
<path fill-rule="evenodd" clip-rule="evenodd" d="M11 52.2504H6.41653C5.9105 52.2504 5.5 51.8399 5.5 51.3339C5.5 50.8279 5.9105 50.417 6.41653 50.417H11C11.506 50.417 11.9165 50.8279 11.9165 51.3339C11.9165 51.8399 11.506 52.2504 11 52.2504Z" fill="#EAB054"/>
<path fill-rule="evenodd" clip-rule="evenodd" d="M44.0005 51.3334C43.4945 51.3334 43.084 50.9225 43.084 50.4165V26.5839C43.084 26.0779 43.4945 25.667 44.0005 25.667C44.5065 25.667 44.917 26.0779 44.917 26.5839V50.4165C44.917 50.9225 44.5065 51.3334 44.0005 51.3334Z" fill="#EAB054"/>
<path fill-rule="evenodd" clip-rule="evenodd" d="M48.5839 51.3334C48.0779 51.3334 47.667 50.9225 47.667 50.4165V26.5839C47.667 26.0779 48.0779 25.667 48.5839 25.667C49.0899 25.667 49.5004 26.0779 49.5004 26.5839V50.4165C49.5004 50.9225 49.0899 51.3334 48.5839 51.3334Z" fill="#EAB054"/>
<path fill-rule="evenodd" clip-rule="evenodd" d="M17.417 12.834H25.667V21.084H17.417V12.834ZM19.2504 19.2505H23.8339V14.667H19.2504V19.2505Z" fill="#EAB054"/>
<path fill-rule="evenodd" clip-rule="evenodd" d="M29.334 12.834H37.584V21.084H29.334V12.834ZM31.167 19.2505H35.7505V14.667H31.167V19.2505Z" fill="#EAB054"/>
<path fill-rule="evenodd" clip-rule="evenodd" d="M17.417 22.916H25.667V31.166H17.417V22.916ZM19.2504 29.3329H23.8339V24.7495H19.2504V29.3329Z" fill="#EAB054"/>
<path fill-rule="evenodd" clip-rule="evenodd" d="M29.334 22.916H37.584V31.166H29.334V22.916ZM31.167 29.3329H35.7505V24.7495H31.167V29.3329Z" fill="#EAB054"/>
<path fill-rule="evenodd" clip-rule="evenodd" d="M17.417 33H25.667V41.25H17.417V33ZM19.2504 39.4165H23.8339V34.8335H19.2504V39.4165Z" fill="#EAB054"/>
<path fill-rule="evenodd" clip-rule="evenodd" d="M29.334 33H37.584V41.25H29.334V33ZM31.167 39.4165H35.7505V34.8335H31.167V39.4165Z" fill="#EAB054"/>
<path fill-rule="evenodd" clip-rule="evenodd" d="M17.417 43.084H25.667V51.3339H17.417V43.084ZM19.2504 49.5005H23.8339V44.917H19.2504V49.5005Z" fill="#EAB054"/>
<path fill-rule="evenodd" clip-rule="evenodd" d="M29.334 43.084H37.584V51.3339H29.334V43.084ZM31.167 49.5005H35.7505V44.917H31.167V49.5005Z" fill="#EAB054"/>
</svg>
