<svg width="66" height="60" viewBox="0 0 66 60" fill="none" xmlns="http://www.w3.org/2000/svg">
<path d="M26.8781 48.633L19.2536 51.4241C18.7983 51.5908 18.5507 52.0955 18.7187 52.5545C18.8868 53.0135 19.3911 53.243 19.857 53.0724L27.4815 50.2813C27.9369 50.1146 28.1844 49.6099 28.0164 49.1509C27.8484 48.6919 27.3335 48.4663 26.8781 48.633ZM26.8781 48.633L19.2536 51.4241C18.7983 51.5908 18.5507 52.0955 18.7187 52.5545C18.8868 53.0135 19.3911 53.243 19.857 53.0724L27.4815 50.2813C27.9369 50.1146 28.1844 49.6099 28.0164 49.1509C27.8484 48.6919 27.3335 48.4663 26.8781 48.633ZM35.7077 9.63798C35.3061 8.80312 34.6181 8.20319 33.7985 7.89987C32.9896 7.59267 32.0558 7.56777 31.1769 7.88953L20.3331 11.8592C19.4542 12.1809 18.7572 12.8028 18.3272 13.5636C17.9077 14.3204 17.7697 15.2227 18.002 16.1196L18.6007 18.444L20.2738 17.8315L19.7112 15.6714C19.597 15.2281 19.6751 14.7855 19.8829 14.4018C20.0975 14.0039 20.4706 13.678 20.9259 13.5113L31.7697 9.54169C32.2356 9.37112 32.7203 9.38297 33.1411 9.54834C33.5475 9.70716 33.8929 9.99475 34.0919 10.407L35.0569 12.4197L36.73 11.8072L35.7077 9.63798ZM47.9729 25.7562L44.2453 27.1208C43.79 27.2875 43.5424 27.7922 43.7104 28.2512L44.2489 29.7221L44.0689 29.788L44.6723 31.4363L44.8523 31.3704L45.8529 34.1036C46.0171 34.5522 46.5252 34.7921 46.9912 34.6215L50.7187 33.257C51.1846 33.0864 51.4216 32.5856 51.2536 32.1266L49.115 26.2846C48.9431 25.8151 48.4282 25.5895 47.9729 25.7562ZM49.2749 31.9045L47.2205 32.6566L45.6815 28.4524L47.7359 27.7003L49.2749 31.9045ZM22.7697 34.9825L19.0421 36.3471C18.5762 36.5176 18.3392 37.0184 18.5072 37.4775L19.0457 38.9484L18.8657 39.0143L19.4691 40.6626L19.6491 40.5967L20.6497 43.3299C20.8139 43.7785 21.322 44.0184 21.788 43.8478L25.5155 42.4832C25.9603 42.3204 26.2049 41.8405 26.0656 41.3946L23.9117 35.5108C23.7399 35.0414 23.2356 34.8119 22.7697 34.9825ZM24.0717 41.1308L22.0173 41.8828L20.4783 37.6787L22.5327 36.9266L24.0717 41.1308ZM26.8781 48.633L19.2536 51.4241C18.7983 51.5908 18.5507 52.0955 18.7187 52.5545C18.8868 53.0135 19.3911 53.243 19.857 53.0724L27.4815 50.2813C27.9369 50.1146 28.1844 49.6099 28.0164 49.1509C27.8484 48.6919 27.3335 48.4663 26.8781 48.633Z" fill="#EAB054"/>
<path d="M24.4355 37.5126L26.0816 42.0094C26.0777 41.9988 26.07 41.9776 26.0661 41.967L25.0489 39.1883L44.8929 31.9239L44.2795 30.2482L24.4355 37.5126ZM24.4355 37.5126L26.0816 42.0094C26.0777 41.9988 26.07 41.9776 26.0661 41.967L25.0489 39.1883L44.8929 31.9239L44.2795 30.2482L24.4355 37.5126ZM52.6876 7.8673C51.958 7.53305 51.1133 7.48147 50.2995 7.77941L37.1486 12.5936L36.8476 11.9702L35.1555 12.5896L35.4566 13.213L20.3567 18.7407L20.1842 18.0702L18.4921 18.6897L18.6647 19.3601L5.51387 24.1743C4.69997 24.4723 4.09211 25.0676 3.75077 25.7939C3.40944 26.5202 3.34146 27.3629 3.63652 28.1689L6.70751 36.5579C7.02586 37.4275 7.51369 38.163 8.1564 38.7575C8.35961 38.9477 8.59495 39.1262 8.83324 39.2795L15.1771 56.6088C15.4683 57.4043 16.0681 58.0145 16.7977 58.3488C17.5273 58.683 18.3759 58.7452 19.1898 58.4473L61.9835 42.7816C62.7866 42.4875 63.4052 41.8882 63.7466 41.162C64.0879 40.4357 64.1452 39.5969 63.8501 38.7909L57.5024 21.4509C57.5678 21.1984 57.6333 20.9459 57.6627 20.6946L57.6822 20.6153C57.7931 19.7569 57.6869 18.8697 57.3685 18.0001L54.2975 9.61114C54.0025 8.80512 53.4065 8.20548 52.6876 7.8673ZM55.6872 18.6156C55.9085 19.2201 55.9819 19.8186 55.9034 20.4006L55.9014 20.4614C55.8259 21.0182 55.6025 21.5691 55.2556 22.0809L52.1982 26.5677C51.9516 26.9225 51.6857 27.2243 51.3818 27.4558C51.0818 27.6979 50.7264 27.8882 50.3087 28.0411L49.9232 28.1822L50.5366 29.8579L50.9222 29.7167C51.5005 29.5051 52.0156 29.2203 52.4821 28.8691C52.9447 28.5073 53.3442 28.0724 53.695 27.5712L56.3947 23.6003L62.1795 39.4024C62.3037 39.7418 62.2771 40.1003 62.1376 40.416C61.9942 40.721 61.7342 40.9726 61.3807 41.102L18.5763 56.7716C18.2337 56.897 17.8619 56.8768 17.5555 56.7364C17.2491 56.596 16.9973 56.3394 16.8691 55.9894L11.0843 40.1872L15.7097 41.4766C16.3051 41.6435 16.8871 41.7071 17.4739 41.6847C18.0608 41.6623 18.6341 41.5366 19.2124 41.3249L19.4159 41.2504L18.8025 39.5747L18.599 39.6492C18.1921 39.7982 17.7978 39.8824 17.4017 39.8951C17.0202 39.9145 16.6222 39.8557 16.2048 39.7439L10.9733 38.2916C10.3526 38.1219 9.81858 37.8243 9.38297 37.4306C8.95807 37.0329 8.61308 36.5217 8.39567 35.9278L5.32468 27.5389C5.20044 27.1995 5.22319 26.8304 5.36655 26.5253C5.50991 26.2203 5.77001 25.9687 6.1127 25.8433L50.8983 9.44839C51.241 9.32294 51.602 9.34712 51.9191 9.48359C52.2256 9.62398 52.4774 9.88058 52.6055 10.2306L55.6765 18.6195L55.6872 18.6156Z" fill="#515151" fill-opacity="0.9"/>
</svg>
